{
  "accessors": [
    {
      "bufferView": 2,
      "componentType": 5126,
      "count": 65532,
      "max": [
        0.01712014526128769,
        0.011551623232662678,
        0.01863788068294525
      ],
      "min": [
        0.0,
        0.0,
        0.0
      ],
      "type": "VEC3"
    },
    {
      "bufferView": 2,
      "byteOffset": 786384,
      "componentType": 5126,
      "count": 65532,
      "max": [
        0.9999728798866272,
        0.9994822144508362,
        0.9989118576049805
      ],
      "min": [
        -0.9999831914901733,
        -0.9999987483024597,
        -0.9998169541358948
      ],
      "type": "VEC3"
    },
    {
      "bufferView": 1,
      "componentType": 5126,
      "count": 65532,
      "max": [
        0.9988700151443481,
        0.9979199767112732
      ],
      "min": [
        0.0010600000387057662,
        0.0031900000758469105
      ],
      "type": "VEC2"
    },
    {
      "bufferView": 0,
      "componentType": 5125,
      "count": 282711,
      "type": "SCALAR"
    },
    {
      "bufferView": 2,
      "byteOffset": 1572768,
      "componentType": 5126,
      "count": 65532,
      "max": [
        0.01701279543340206,
        0.010871896520256996,
        0.01839742623269558
      ],
      "min": [
        0.00011327490210533142,
        0.0010749830398708582,
        1.7502345144748688e-05
      ],
      "type": "VEC3"
    },
    {
      "bufferView": 2,
      "byteOffset": 2359152,
      "componentType": 5126,
      "count": 65532,
      "max": [
        0.9999918341636658,
        0.9984341263771057,
        0.9998661279678345
      ],
      "min": [
        -0.9999743103981018,
        -0.9999969601631165,
        -0.9999603629112244
      ],
      "type": "VEC3"
    },
    {
      "bufferView": 1,
      "byteOffset": 524256,
      "componentType": 5126,
      "count": 65532,
      "max": [
        0.9986900091171265,
        0.9979000091552734
      ],
      "min": [
        0.001120000029914081,
        0.0025500000920146704
      ],
      "type": "VEC2"
    },
    {
      "bufferView": 0,
      "byteOffset": 1130844,
      "componentType": 5125,
      "count": 278274,
      "type": "SCALAR"
    },
    {
      "bufferView": 2,
      "byteOffset": 3145536,
      "componentType": 5126,
      "count": 65532,
      "max": [
        0.01710854098200798,
        0.011150071397423744,
        0.01863785833120346
      ],
      "min": [
        3.448314964771271e-05,
        0.0003532657865434885,
        8.086208254098892e-05
      ],
      "type": "VEC3"
    },
    {
      "bufferView": 2,
      "byteOffset": 3931920,
      "componentType": 5126,
      "count": 65532,
      "max": [
        0.999988317489624,
        0.999178946018219,
        0.9998025894165039
      ],
      "min": [
        -0.9999831914901733,
        -0.9999785423278809,
        -0.9999697208404541
      ],
      "type": "VEC3"
    },
    {
      "bufferView": 1,
      "byteOffset": 1048512,
      "componentType": 5126,
      "count": 65532,
      "max": [
        0.9990500211715698,
        0.9979199767112732
      ],
      "min": [
        0.0010400000028312206,
        0.004240000154823065
      ],
      "type": "VEC2"
    },
    {
      "bufferView": 0,
      "byteOffset": 2243940,
      "componentType": 5125,
      "count": 235275,
      "type": "SCALAR"
    },
    {
      "bufferView": 2,
      "byteOffset": 4718304,
      "componentType": 5126,
      "count": 40211,
      "max": [
        0.01712014526128769,
        0.011309193447232246,
        0.01863785833120346
      ],
      "min": [
        1.4388933777809143e-06,
        0.0005247564986348152,
        1.0392628610134125e-05
      ],
      "type": "VEC3"
    },
    {
      "bufferView": 2,
      "byteOffset": 5200836,
      "componentType": 5126,
      "count": 40211,
      "max": [
        0.9999932050704956,
        0.9994822144508362,
        0.9998661279678345
      ],
      "min": [
        -0.9999797344207764,
        -0.9999969601631165,
        -0.9999242424964905
      ],
      "type": "VEC3"
    },
    {
      "bufferView": 1,
      "byteOffset": 1572768,
      "componentType": 5126,
      "count": 40211,
      "max": [
        0.9990800023078918,
        0.9979199767112732
      ],
      "min": [
        0.0010400000028312206,
        0.004780000075697899
      ],
      "type": "VEC2"
    },
    {
      "bufferView": 0,
      "byteOffset": 3185040,
      "componentType": 5125,
      "count": 86691,
      "type": "SCALAR"
    }
  ],
  "asset": {
    "extras": {
      "author": "kimbo (https://sketchfab.com/kimbo)",
      "license": "CC-BY-4.0 (http://creativecommons.org/licenses/by/4.0/)",
      "source": "https://sketchfab.com/3d-models/castel-hunedoara-ii-813c2b1c278e42848343426fc67cefd7",
      "title": "Castel Hunedoara II"
    },
    "generator": "Sketchfab-12.68.0",
    "version": "2.0"
  },
  "bufferViews": [
    {
      "buffer": 0,
      "byteLength": 3531804,
      "name": "floatBufferViews",
      "target": 34963
    },
    {
      "buffer": 0,
      "byteLength": 1894456,
      "byteOffset": 3531804,
      "byteStride": 8,
      "name": "floatBufferViews",
      "target": 34962
    },
    {
      "buffer": 0,
      "byteLength": 5683368,
      "byteOffset": 5426260,
      "byteStride": 12,
      "name": "floatBufferViews",
      "target": 34962
    }
  ],
  "buffers": [
    {
      "byteLength": 11109628,
      "uri": "scene.bin"
    }
  ],
  "extensionsUsed": [
    "KHR_materials_unlit"
  ],
  "images": [
    {
      "uri": "textures/Material_0_baseColor.jpeg"
    }
  ],
  "materials": [
    {
      "doubleSided": true,
      "extensions": {
        "KHR_materials_unlit": {}
      },
      "name": "Material_0",
      "pbrMetallicRoughness": {
        "baseColorTexture": {
          "index": 0
        },
        "metallicFactor": 0.0
      }
    }
  ],
  "meshes": [
    {
      "name": "Object_0",
      "primitives": [
        {
          "attributes": {
            "NORMAL": 1,
            "POSITION": 0,
            "TEXCOORD_0": 2
          },
          "indices": 3,
          "material": 0,
          "mode": 4
        }
      ]
    },
    {
      "name": "Object_1",
      "primitives": [
        {
          "attributes": {
            "NORMAL": 5,
            "POSITION": 4,
            "TEXCOORD_0": 6
          },
          "indices": 7,
          "material": 0,
          "mode": 4
        }
      ]
    },
    {
      "name": "Object_2",
      "primitives": [
        {
          "attributes": {
            "NORMAL": 9,
            "POSITION": 8,
            "TEXCOORD_0": 10
          },
          "indices": 11,
          "material": 0,
          "mode": 4
        }
      ]
    },
    {
      "name": "Object_3",
      "primitives": [
        {
          "attributes": {
            "NORMAL": 13,
            "POSITION": 12,
            "TEXCOORD_0": 14
          },
          "indices": 15,
          "material": 0,
          "mode": 4
        }
      ]
    }
  ],
  "nodes": [
    {
      "children": [
        1
      ],
      "matrix": [
        1.0,
        0.0,
        0.0,
        0.0,
        0.0,
        -0.8912520408630372,
        0.4535083472728727,
        0.0,
        0.0,
        -0.4535083472728727,
        -0.8912520408630372,
        0.0,
        0.0,
        0.002674765884876252,
        -0.003388680517673492,
        1.0
      ],
      "name": "Sketchfab_model"
    },
    {
      "children": [
        2,
        3,
        4,
        5
      ],
      "matrix": [
        1.0,
        0.0,
        0.0,
        0.0,
        0.0,
        1.0,
        0.0,
        0.0,
        0.0,
        0.0,
        1.0,
        0.0,
        -0.00876130536198616,
        -0.0032614246010780334,
        -0.009020480327308178,
        1.0
      ],
      "name": "Model.obj.cleaner.gles"
    },
    {
      "mesh": 0,
      "name": "Object_2"
    },
    {
      "mesh": 1,
      "name": "Object_3"
    },
    {
      "mesh": 2,
      "name": "Object_4"
    },
    {
      "mesh": 3,
      "name": "Object_5"
    }
  ],
  "samplers": [
    {
      "magFilter": 9729,
      "minFilter": 9987,
      "wrapS": 10497,
      "wrapT": 10497
    }
  ],
  "scene": 0,
  "scenes": [
    {
      "name": "Sketchfab_Scene",
      "nodes": [
        0
      ]
    }
  ],
  "textures": [
    {
      "sampler": 0,
      "source": 0
    }
  ]
}
